<?xml version="1.0" encoding="UTF-8" standalone="no"?>
<svg xmlns:dc="http://purl.org/dc/elements/1.1/" xmlns:cc="http://creativecommons.org/ns#" xmlns:rdf="http://www.w3.org/1999/02/22-rdf-syntax-ns#" xmlns:svg="http://www.w3.org/2000/svg" xmlns="http://www.w3.org/2000/svg" xmlns:sodipodi="http://sodipodi.sourceforge.net/DTD/sodipodi-0.dtd" xmlns:inkscape="http://www.inkscape.org/namespaces/inkscape" width="1000" height="276.76523" viewBox="0 0 1000 276.76523" version="1.1" id="svg24" sodipodi:docname="blue-horizontal.svg" inkscape:version="0.92.4 (5da689c313, 2019-01-14)">
  <metadata id="metadata30"></metadata>
  <defs id="defs28"></defs>
  <!-- Generator: Sketch 63.1 (92452) - https://sketch.com -->
  <title id="title2">blue-horizontal</title>
  <desc id="desc4">Created with Sketch.</desc>
  <g id="Page-1" transform="matrix(8.3130645,0,0,8.3130645,-0.77630722,-0.92293305)" style="fill:none;fill-rule:evenodd;stroke:none;stroke-width:1">
    <g id="1200XL-Desktop---Home" transform="translate(-20,-90)">
      <g id="blue-horizontal" transform="translate(20,90)">
        <g id="No" transform="translate(0.047484,0.065122)">
          <path d="M 16.692301,0.0459 C 7.4970006,0.0459 0.0459,7.4970006 0.0459,16.692301 c 0,9.195301 7.4511006,16.646402 16.646401,16.646402 9.195301,0 16.646402,-7.451101 16.646402,-16.646402 0,-9.1953004 -7.451101,-16.646401 -16.646402,-16.646401" id="Fill-1" inkscape:connector-curvature="0" style="fill:#1d4371"></path>
          <path d="m 28.947602,24.066902 -1.1016,0.09945 -3.31245,0.26775 c -0.37485,0.0077 -0.7191,-0.1377 -0.97155,-0.37485 l -1.20105,-1.15515 -1.1934,-1.1169 c -0.1377,-0.11475 -0.3213,-0.17595 -0.51255,-0.16065 -0.34425,0.0306 -0.60435,0.29835 -0.6273,0.6426 -0.0077,0.1683 0.03825,0.3213 0.1224,0.45135 l 0.0153,0.02295 2.08845,2.48625 0.7497,0.81855 c 0.4437,0.4284 0.45135,1.12455 0.0306,1.56825 -0.4284,0.4437 -1.12455,0.45135 -1.56825,0.0306 l -0.84915,-0.71145 -3.167101,-2.70045 -0.153,-0.13005 c -0.1224,-0.11475 -0.2907,-0.1836 -0.46665,-0.17595 -0.17595,0.0076 -0.34425,0.0765 -0.459,0.19125 l -0.14535,0.1377 -3.06765,2.8152 -0.8262,0.74205 c -0.4284,0.4437 -1.12455,0.45135 -1.56825,0.0306 -0.4437,-0.4284 -0.45135,-1.12455 -0.0306,-1.56825 l 0.7191,-0.8415 1.99665,-2.56275 0.0153,-0.02295 c 0.08415,-0.13005 0.13005,-0.28305 0.1071,-0.45135 -0.03825,-0.34425 -0.306,-0.60435 -0.65025,-0.61965 -0.1989,-0.0076 -0.37485,0.0612 -0.5049,0.1836 l -1.1475,1.1628 -1.15515,1.20105 c -0.2448002,0.2448 -0.5814002,0.3978 -0.9562502,0.40545 l -3.3201003,-0.14535 -1.1092501,-0.05355 c -0.6120001,0.0076 -1.1169001,-0.4743 -1.1322899,-1.0863 -0.00756,-0.612 0.4743898,-1.1169 1.0863899,-1.1322 l 1.1016001,-0.0918 2.4709502,-0.306 c 0.6426,-0.13005 1.1245501,-0.71145 1.1092501,-1.3923 l -0.14535,-7.657651 c -0.0765,-4.0851003 3.1747502,-7.4587506 7.2598502,-7.5352506 4.085101,-0.0765 7.458751,3.1747503 7.535251,7.2598506 l 0.14535,7.657651 c 0.0153,0.68085 0.51255,1.2393 1.1628,1.3464 l 2.4786,0.2142 1.10925,0.0459 c 0.612,-0.0076 1.1169,0.4743 1.132289,1.0863 0.0076,0.612 -0.482039,1.1169 -1.094039,1.12455" id="Fill-5" inkscape:connector-curvature="0" style="fill:#ffffff"></path>
          <path d="m 21.726002,12.247651 c -0.87975,-0.60435 -1.7748,-1.18575 -2.6928,-1.73655 -0.481951,-0.2907 -1.040401,0.09945 -1.032751,0.6579 0.0076,0.29835 0.16065,0.49725 0.3978,0.65025 0.474301,0.306 0.948601,0.61965 1.468801,0.95625 -0.55845,0.3366 -1.071,0.6273 -1.568251,0.94095 -0.35955,0.2295 -0.436049,0.6426 -0.229499,0.98685 0.198899,0.32895 0.604349,0.46665 0.9486,0.26775 0.89505,-0.51255 1.78245,-1.03275 2.6622,-1.58355 0.4284,-0.2601 0.45135,-0.8568 0.0459,-1.13985" id="Fill-7" inkscape:connector-curvature="0" style="fill:#1d4371"></path>
          <path d="m 14.787451,13.639951 c -0.459,-0.2754 -0.918,-0.54315 -1.44585,-0.86445 0.5202,-0.3366 0.9792,-0.6273 1.43055,-0.92565 0.46665,-0.306 0.58905,-0.7191 0.32895,-1.1016 -0.25245,-0.3672 -0.66555,-0.4131 -1.12455,-0.1224 -0.765,0.4896 -1.53,0.98685 -2.295,1.4841 -0.6426,0.42075 -0.6273,1.0098 0.0306,1.4076 0.77265,0.459 1.5453,0.918 2.31795,1.36935 0.459,0.26775 0.8874,0.1989 1.10925,-0.17595 0.23715,-0.3825 0.09945,-0.80325 -0.3519,-1.071" id="Fill-9" inkscape:connector-curvature="0" style="fill:#1d4371"></path>
        </g>
        <g id="Blue" transform="translate(39.55606,7.016071)" style="fill:#1d4371">
          <path d="m 4.6818004,3.7791003 c -0.6196501,0 -1.2010501,0.02295 -1.7289002,0.06885 v 5.2249505 h 1.2852001 c 0.7191001,0 1.3464002,-0.03825 1.8895502,-0.1147501 0.54315,-0.0765 1.0021501,-0.2142 1.3617001,-0.42075 0.3672,-0.1989 0.6426001,-0.4743 0.8262001,-0.8185501 0.1836,-0.34425 0.28305,-0.7803 0.28305,-1.3081501 0,-0.49725 -0.0918,-0.9180001 -0.28305,-1.2622501 -0.1836,-0.34425 -0.4513501,-0.612 -0.8032501,-0.81855 -0.3519,-0.1989001 -0.765,-0.3442501 -1.2469501,-0.4284001 -0.48195,-0.0765 -1.0098001,-0.1224 -1.5835501,-0.1224 m -0.20655,-2.5398002 c 2.3332502,0 4.1157003,0.4284 5.3550004,1.2852001 1.2393002,0.8568001 1.8589502,2.1573002 1.8589502,3.9168003 0,2.1879002 -1.07865,3.6720005 -3.2436003,4.4523005 0.29835,0.35955 0.6273001,0.7956 1.0021501,1.30815 0.37485,0.51255 0.7573502,1.071 1.1398502,1.6677 0.39015,0.5967 0.765,1.2087 1.1169,1.84365 0.35955,0.6273 0.6732,1.24695 0.95625,1.8513 H 9.3712508 c -0.29835,-0.55845 -0.6120001,-1.12455 -0.9562501,-1.69065 -0.34425,-0.5661 -0.6885001,-1.1169 -1.0404001,-1.6524 -0.3519,-0.5355 -0.6961501,-1.0404 -1.0404001,-1.5147 -0.34425,-0.4743 -0.6579,-0.89505 -0.9562501,-1.2699 -0.22185,0.0153 -0.40545,0.02295 -0.55845,0.02295 h -0.4437 -1.4229002 v 6.1047 H 0.0153 V 1.6371001 c 0.71145006,-0.153 1.4764501,-0.2601 2.2873502,-0.31365 0.8109001,-0.05355 1.5300001,-0.08415 2.1726002,-0.08415" id="Fill-11" inkscape:connector-curvature="0"></path>
          <path d="m 40.981053,1.7977501 c 0,0.5278501 -0.1683,0.9486001 -0.51255,1.2622502 -0.34425,0.31365 -0.7497,0.46665 -1.21635,0.46665 -0.48195,0 -0.89505,-0.153 -1.2393,-0.46665 -0.34425,-0.3136501 -0.51255,-0.7267501 -0.51255,-1.2622502 0,-0.54315 0.1683,-0.97155003 0.51255,-1.28520006 0.34425,-0.31365002 0.75735,-0.46665004 1.2393,-0.46665004 0.46665,0 0.8721,0.15300002 1.21635,0.46665004 0.34425,0.31365003 0.51255,0.74205006 0.51255,1.28520006" id="Fill-13" inkscape:connector-curvature="0"></path>
          <path d="m 18.382951,15.575401 c 0.872101,0 1.530001,-0.0459 1.981351,-0.1377 v -3.1212 c -0.153,-0.0459 -0.3825,-0.0918 -0.6732,-0.1377 -0.29835,-0.0459 -0.61965,-0.06885 -0.979201,-0.06885 -0.31365,0 -0.627299,0.02295 -0.9486,0.06885 -0.3213,0.0459 -0.60435,0.13005 -0.86445,0.2601 -0.2601,0.1224 -0.46665,0.29835 -0.61965,0.52785 -0.153,0.22185 -0.23715,0.51255 -0.23715,0.84915 0,0.66555 0.20655,1.1322 0.6273,1.38465 0.4284,0.2448 0.9945,0.37485 1.7136,0.37485 M 18.145801,5.0643004 c 0.933301,0 1.721251,0.11475 2.356201,0.3519 0.63495,0.2295001 1.1475,0.5584501 1.53,0.9792001 0.3825,0.4207501 0.65025,0.9256501 0.81855,1.5300002 0.16065,0.5967 0.2448,1.2546001 0.2448,1.9660501 v 7.3899002 c -0.43605,0.0918 -1.09395,0.20655 -1.9737,0.3366 -0.87975,0.13005 -1.87425,0.1989 -2.975851,0.1989 -0.7344,0 -1.39995,-0.06885 -2.0043,-0.20655 -0.60435,-0.1377 -1.12455,-0.3672 -1.55295,-0.6732 -0.4284,-0.31365 -0.765,-0.71145 -1.00215,-1.2087 -0.2448,-0.49725 -0.35955,-1.10925 -0.35955,-1.84365 0,-0.69615 0.1377,-1.29285 0.40545,-1.7748 0.2754,-0.48195 0.6426,-0.8721 1.10925,-1.1781 0.46665,-0.306 1.0098,-0.5202 1.6218,-0.65025 0.612,-0.13005 1.2546,-0.1989 1.927801,-0.1989 0.313649,0 0.63495,0.02295 0.9792,0.0612 0.34425,0.03825 0.71145,0.1071 1.09395,0.1989 V 9.8761508 c 0,-0.32895 -0.03825,-0.63495 -0.11475,-0.9333001 -0.0765,-0.29835 -0.2142,-0.55845 -0.40545,-0.7803 -0.19125,-0.22185 -0.45135,-0.3978001 -0.77265,-0.5278501 -0.3213,-0.1224 -0.719101,-0.1836 -1.201051,-0.1836 -0.65025,0 -1.2546,0.0459 -1.79775,0.1377 -0.54315,0.0918 -0.98685,0.1989 -1.3311,0.3289501 l -0.3519,-2.2873502 c 0.35955,-0.1224 0.87975,-0.2448001 1.5606,-0.3748501 0.6885,-0.13005 1.4229,-0.19125 2.19555,-0.19125" id="Fill-15" inkscape:connector-curvature="0"></path>
          <path d="m 33.231603,11.520901 c 0,-1.26225 -0.28305,-2.2414502 -0.84915,-2.9376003 -0.5661,-0.6961501 -1.4841,-1.0480501 -2.7387,-1.0480501 -0.267751,0 -0.543151,0.0153 -0.826201,0.03825 -0.2907,0.02295 -0.57375,0.0765 -0.84915,0.153 v 6.9615004 c 0.25245,0.1683 0.5814,0.32895 0.9945,0.4743 0.4131,0.14535 0.84915,0.22185 1.315801,0.22185 1.0251,0 1.7748,-0.3519 2.2491,-1.04805 0.46665,-0.69615 0.7038,-1.6371 0.7038,-2.8152 m 2.8917,-0.0459 c 0,0.9333 -0.1224,1.7901 -0.35955,2.56275 -0.2448,0.7803 -0.58905,1.44585 -1.0404,2.0043 -0.45135,0.55845 -1.01745,0.9945 -1.69065,1.30815 -0.6732,0.31365 -1.44585,0.46665 -2.302651,0.46665 -0.57375,0 -1.1016,-0.06885 -1.58355,-0.20655 -0.48195,-0.1377 -0.87975,-0.29835 -1.1934,-0.46665 v 4.735351 h -2.82285 V 5.7604505 c 0.57375,-0.153 1.2852,-0.306 2.1267,-0.4437001 0.8415,-0.1377 1.7289,-0.20655 2.6622,-0.20655 0.963901,0 1.828351,0.14535 2.593351,0.4437001 0.765,0.29835 1.41525,0.7191 1.95075,1.2699001 0.5355,0.5508 0.9486,1.2240001 1.2393,2.0043001 0.2754,0.7803001 0.42075,1.6677003 0.42075,2.6469003" id="Fill-17" inkscape:connector-curvature="0"></path>
          <polygon id="Fill-19" points="37.836903,5.3626504 37.836903,17.556752 40.659753,17.556752 40.659753,5.3626504 "></polygon>
          <path d="m 64.137605,12.798451 c -0.3672,-0.9945 -0.72675,-1.95075 -1.0863,-2.8840502 -0.35955,-0.9333001 -0.7344,-1.8207001 -1.12455,-2.6775002 -0.3978,0.8568001 -0.7803,1.7518501 -1.13985,2.6775002 -0.35955,0.9333002 -0.7191,1.8895502 -1.071,2.8840502 z m 1.5606,4.39875 c -0.19125,-0.51255 -0.37485,-1.01745 -0.5508,-1.5147 -0.1683,-0.49725 -0.3519,-1.00215 -0.52785,-1.5147 h -5.37795 l -1.07865,3.0294 h -1.7289 c 0.459,-1.2546 0.8874,-2.4174 1.2852,-3.48075 0.3978,-1.06335 0.78795,-2.0808 1.17045,-3.03705 0.3825,-0.9562502 0.765,-1.8742503 1.13985,-2.7463503 0.37485,-0.8721001 0.77265,-1.7365502 1.18575,-2.5933503 h 1.52235 c 0.4131,0.8568001 0.80325,1.7212502 1.18575,2.5933503 0.37485,0.8721 0.75735,1.7901001 1.13985,2.7463503 0.3825,0.95625 0.77265,1.9737 1.17045,3.03705 0.397801,1.06335 0.8262,2.22615 1.285201,3.48075 z" id="Fill-21" inkscape:connector-curvature="0"></path>
          <path d="m 72.323106,6.6784505 c -0.71145,0 -1.24695,0.0153 -1.62945,0.05355 v 4.6512005 h 1.24695 c 0.57375,0 1.0863,-0.03825 1.5453,-0.11475 0.459,-0.0765 0.8415,-0.1989 1.15515,-0.37485 0.31365,-0.17595 0.55845,-0.42075 0.72675,-0.72675 0.1683,-0.3060003 0.2601,-0.7038003 0.2601,-1.1781004 0,-0.459 -0.0918,-0.83385 -0.26775,-1.1322001 -0.17595,-0.29835 -0.42075,-0.5355 -0.7191,-0.71145 -0.306,-0.17595 -0.65025,-0.29835 -1.0557,-0.3672 -0.39015,-0.06885 -0.8109,-0.09945 -1.26225,-0.09945 m -0.13005,-1.4535001 c 1.6677,0 2.94525,0.3136501 3.84795,0.9486001 0.89505,0.6349501 1.3464,1.5759001 1.3464,2.8305002 0,0.6808501 -0.1224,1.2699003 -0.3672,1.7518503 -0.2448,0.48195 -0.5967,0.87975 -1.06335,1.1781 -0.459,0.306 -1.0251,0.5202 -1.69065,0.6579 -0.66555,0.1377 -1.4076,0.20655 -2.24145,0.20655 h -1.3158 v 4.39875 h -1.66005 V 5.5156505 c 0.46665,-0.1147501 0.9945,-0.1912501 1.56825,-0.2295001 0.5661,-0.0459 1.09395,-0.0612 1.5759,-0.0612" id="Fill-22" inkscape:connector-curvature="0"></path>
          <polygon id="Fill-23" points="79.169856,5.3397004 79.169856,17.197201 80.829907,17.197201 80.829907,5.3397004 "></polygon>
          <path d="m 45.265054,11.429101 c 0,1.24695 0.29835,2.2185 0.8874,2.9223 0.58905,0.7038 1.4076,1.06335 2.448,1.06335 0.45135,0 0.83385,-0.02295 1.15515,-0.0612 0.3213,-0.03825 0.5814,-0.08415 0.7803,-0.13005 V 8.2314007 c -0.25245,-0.1683 -0.5814,-0.3289501 -0.9945,-0.4743001 -0.4131,-0.14535 -0.84915,-0.22185 -1.3158,-0.22185 -1.0251,0 -1.7748,0.3519 -2.2491,1.0480501 -0.4743,0.6961501 -0.71145,1.6447503 -0.71145,2.8458003 z m 8.0937,5.7528 c -0.55845,0.1683 -1.26225,0.32895 -2.1114,0.46665 -0.84915,0.1377 -1.73655,0.20655 -2.66985,0.20655 -0.9639,0 -1.82835,-0.14535 -2.59335,-0.4437 -0.765,-0.29835 -1.41525,-0.7191 -1.95075,-1.2699 -0.5355,-0.5508 -0.9486,-1.21635 -1.239301,-2.0043 -0.2907,-0.78795 -0.428399,-1.6677 -0.428399,-2.6469 0,-0.9639 0.122399,-1.8360002 0.359549,-2.6239503 0.237151,-0.78795 0.596701,-1.4535001 1.063351,-2.0196001 0.46665,-0.5584501 1.03275,-0.9945001 1.70595,-1.2928501 0.66555,-0.3060001 1.4382,-0.4513501 2.3103,-0.4513501 0.58905,0 1.10925,0.06885 1.5606,0.20655 0.45135,0.1377 0.8415,0.2983501 1.1628,0.4666501 V 0.49725004 h 2.82285 l 0.0076,16.68465096 z" id="Fill-24" inkscape:connector-curvature="0"></path>
        </g>
      </g>
    </g>
  </g>
</svg>
