<svg width="219" height="40" viewBox="0 0 219 40" fill="none" xmlns="http://www.w3.org/2000/svg">
<path d="M25.7232 10.3793L9.29272 23.833V38.3534C9.29272 38.7294 9.44295 39.09 9.71035 39.3558C9.97775 39.6217 10.3404 39.771 10.7186 39.771L20.705 39.7453C21.0819 39.7434 21.4428 39.5933 21.7086 39.3276C21.9745 39.062 22.1238 38.7025 22.1238 38.3277V29.848C22.1238 29.472 22.274 29.1114 22.5414 28.8456C22.8088 28.5797 23.1715 28.4304 23.5496 28.4304H29.2531C29.6313 28.4304 29.9939 28.5797 30.2613 28.8456C30.5287 29.1114 30.679 29.472 30.679 29.848V38.3215C30.6784 38.5081 30.7148 38.6929 30.7862 38.8654C30.8576 39.0379 30.9625 39.1947 31.095 39.3268C31.2275 39.4589 31.3849 39.5637 31.5581 39.6352C31.7314 39.7067 31.9172 39.7435 32.1048 39.7435L42.0877 39.771C42.4659 39.771 42.8285 39.6217 43.0959 39.3558C43.3633 39.09 43.5136 38.7294 43.5136 38.3534V23.8233L27.0867 10.3793C26.8935 10.2245 26.653 10.1401 26.4049 10.1401C26.1569 10.1401 25.9163 10.2245 25.7232 10.3793ZM51.6767 19.5236L44.2265 13.4182V1.14644C44.2265 0.864462 44.1138 0.594037 43.9133 0.394651C43.7127 0.195266 43.4407 0.083252 43.1571 0.083252H38.1665C37.8829 0.083252 37.6109 0.195266 37.4104 0.394651C37.2098 0.594037 37.0971 0.864462 37.0971 1.14644V7.57958L29.1185 1.05341C28.3528 0.426996 27.3921 0.0845042 26.4005 0.0845042C25.4089 0.0845042 24.4481 0.426996 23.6824 1.05341L1.12428 19.5236C1.01599 19.6125 0.926399 19.7219 0.860623 19.8453C0.794848 19.9687 0.754178 20.1038 0.740936 20.2428C0.727695 20.3819 0.742142 20.5222 0.783451 20.6557C0.824761 20.7892 0.892124 20.9133 0.981691 21.0209L3.25417 23.7674C3.34349 23.8754 3.45336 23.9648 3.57748 24.0305C3.70161 24.0962 3.83755 24.137 3.97752 24.1504C4.1175 24.1638 4.25876 24.1496 4.39322 24.1087C4.52769 24.0678 4.65271 24.0009 4.76113 23.9119L25.7232 6.74676C25.9163 6.592 26.1569 6.5076 26.4049 6.5076C26.653 6.5076 26.8935 6.592 27.0867 6.74676L48.0496 23.9119C48.1578 24.0009 48.2827 24.0679 48.4169 24.1089C48.5512 24.15 48.6923 24.1644 48.8322 24.1512C48.972 24.138 49.1079 24.0976 49.2321 24.0322C49.3562 23.9668 49.4662 23.8778 49.5557 23.7701L51.8282 21.0235C51.9176 20.9153 51.9847 20.7906 52.0255 20.6565C52.0663 20.5224 52.0801 20.3816 52.066 20.2422C52.052 20.1029 52.0103 19.9676 51.9435 19.8443C51.8767 19.7209 51.786 19.6119 51.6767 19.5236Z" fill="#E84917"/>
<path d="M57.4686 13.4253H65.0648C66.6223 13.4253 67.9606 13.6584 69.0797 14.1248C70.2082 14.5911 71.0755 15.2812 71.6817 16.1952C72.2879 17.1091 72.591 18.2329 72.591 19.5666C72.591 20.6577 72.4045 21.595 72.0314 22.3784C71.6677 23.1525 71.1501 23.8007 70.4786 24.3229C69.8165 24.8359 69.0377 25.2462 68.1424 25.554L66.8134 26.2534H60.2105L60.1825 22.98H65.0928C65.8295 22.98 66.4404 22.8494 66.9253 22.5883C67.4103 22.3271 67.774 21.9634 68.0165 21.4971C68.2683 21.0308 68.3942 20.4899 68.3942 19.8743C68.3942 19.2215 68.273 18.6573 68.0305 18.1816C67.788 17.706 67.4196 17.3423 66.9253 17.0905C66.4311 16.8387 65.8109 16.7128 65.0648 16.7128H61.6654V33.7937H57.4686V13.4253ZM68.8559 33.7937L64.2114 24.7146L68.646 24.6866L73.3464 33.5978V33.7937H68.8559Z" fill="#44382D"/>
<path d="M82.5374 34.0734C81.3623 34.0734 80.3084 33.8869 79.3758 33.5139C78.4432 33.1315 77.6504 32.6046 76.9976 31.9331C76.3541 31.2616 75.8598 30.4829 75.5148 29.5969C75.1697 28.7016 74.9972 27.7503 74.9972 26.7431V26.1835C74.9972 25.0364 75.1604 23.9872 75.4868 23.0359C75.8132 22.0846 76.2795 21.2593 76.8857 20.5598C77.5012 19.8603 78.2473 19.3241 79.124 18.951C80.0006 18.5687 80.9892 18.3775 82.0897 18.3775C83.1622 18.3775 84.1135 18.5547 84.9435 18.9091C85.7735 19.2635 86.4683 19.7671 87.0279 20.4199C87.5968 21.0728 88.0258 21.8562 88.3149 22.7701C88.604 23.6748 88.7486 24.682 88.7486 25.7918V27.4705H76.7178V24.7846H84.7896V24.4768C84.7896 23.9172 84.687 23.4183 84.4819 22.98C84.286 22.5323 83.9876 22.1779 83.5866 21.9168C83.1855 21.6556 82.6726 21.5251 82.0477 21.5251C81.5161 21.5251 81.0592 21.6416 80.6768 21.8748C80.2944 22.108 79.982 22.4344 79.7395 22.8541C79.5064 23.2737 79.3292 23.768 79.2079 24.3369C79.096 24.8965 79.04 25.512 79.04 26.1835V26.7431C79.04 27.3493 79.124 27.9088 79.2919 28.4218C79.4691 28.9347 79.7162 29.3777 80.0333 29.7508C80.3597 30.1238 80.7514 30.4129 81.2084 30.6181C81.6747 30.8233 82.2016 30.9259 82.7892 30.9259C83.5166 30.9259 84.1928 30.786 84.8176 30.5062C85.4518 30.2171 85.9974 29.7834 86.4544 29.2052L88.4128 31.3315C88.0958 31.7885 87.6621 32.2269 87.1118 32.6465C86.5709 33.0662 85.9181 33.4113 85.1534 33.6817C84.3886 33.9429 83.5166 34.0734 82.5374 34.0734Z" fill="#44382D"/>
<path d="M99.982 30.4922V12.3062H104.039V33.7937H100.388L99.982 30.4922ZM90.4133 26.4073V26.1135C90.4133 24.9571 90.5439 23.9079 90.805 22.966C91.0661 22.0147 91.4485 21.1987 91.9521 20.5178C92.4557 19.837 93.0759 19.3101 93.8127 18.9371C94.5495 18.564 95.3888 18.3775 96.3308 18.3775C97.2168 18.3775 97.9908 18.564 98.653 18.9371C99.3245 19.3101 99.8934 19.8417 100.36 20.5318C100.835 21.2126 101.218 22.0194 101.507 22.952C101.796 23.8753 102.006 24.8872 102.136 25.9876V26.6312C102.006 27.685 101.796 28.6643 101.507 29.5689C101.218 30.4735 100.835 31.2663 100.36 31.9471C99.8934 32.6186 99.3245 33.1408 98.653 33.5139C97.9815 33.8869 97.1981 34.0734 96.3028 34.0734C95.3609 34.0734 94.5215 33.8823 93.7847 33.4999C93.0573 33.1175 92.4418 32.5813 91.9381 31.8911C91.4439 31.201 91.0661 30.3896 90.805 29.457C90.5439 28.5244 90.4133 27.5078 90.4133 26.4073ZM94.4422 26.1135V26.4073C94.4422 27.0322 94.4889 27.6151 94.5821 28.156C94.6847 28.6969 94.8479 29.1772 95.0717 29.5969C95.3049 30.0072 95.6033 30.329 95.967 30.5621C96.3401 30.786 96.7924 30.8979 97.324 30.8979C98.0141 30.8979 98.583 30.744 99.0307 30.4362C99.4784 30.1191 99.8188 29.6855 100.052 29.1352C100.294 28.585 100.434 27.9508 100.472 27.2327V25.4001C100.444 24.8125 100.36 24.2856 100.22 23.8193C100.089 23.3437 99.8934 22.938 99.6322 22.6022C99.3804 22.2665 99.0633 22.0054 98.681 21.8188C98.3079 21.6323 97.8649 21.5391 97.352 21.5391C96.8297 21.5391 96.3821 21.6603 96.009 21.9028C95.636 22.1359 95.3329 22.4577 95.0997 22.868C94.8759 23.2784 94.708 23.7634 94.5961 24.3229C94.4935 24.8732 94.4422 25.47 94.4422 26.1135Z" fill="#44382D"/>
<path d="M125.177 28.4637C125.177 28.1 125.121 27.7736 125.009 27.4845C124.906 27.1861 124.71 26.9156 124.421 26.6731C124.132 26.4213 123.726 26.1742 123.204 25.9317C122.682 25.6892 122.006 25.4374 121.176 25.1763C120.252 24.8778 119.376 24.5421 118.546 24.169C117.725 23.796 116.998 23.3623 116.363 22.868C115.739 22.3644 115.244 21.7815 114.881 21.1194C114.526 20.4572 114.349 19.6878 114.349 18.8112C114.349 17.9625 114.535 17.1931 114.909 16.5029C115.282 15.8035 115.804 15.2066 116.475 14.7123C117.147 14.2087 117.94 13.8217 118.853 13.5512C119.777 13.2807 120.789 13.1455 121.889 13.1455C123.391 13.1455 124.701 13.416 125.82 13.9569C126.939 14.4978 127.807 15.2392 128.422 16.1812C129.047 17.1231 129.359 18.2003 129.359 19.4127H125.191C125.191 18.8158 125.065 18.2936 124.813 17.8459C124.57 17.3889 124.197 17.0299 123.694 16.7687C123.199 16.5076 122.575 16.377 121.819 16.377C121.092 16.377 120.486 16.4889 120.001 16.7128C119.516 16.9273 119.152 17.221 118.909 17.5941C118.667 17.9578 118.546 18.3682 118.546 18.8251C118.546 19.1702 118.63 19.4826 118.798 19.7624C118.975 20.0422 119.236 20.3033 119.581 20.5458C119.926 20.7883 120.35 21.0168 120.854 21.2313C121.358 21.4458 121.94 21.6556 122.603 21.8608C123.712 22.1966 124.687 22.5743 125.526 22.9939C126.375 23.4136 127.084 23.8846 127.653 24.4069C128.222 24.9291 128.651 25.5213 128.94 26.1835C129.229 26.8457 129.373 27.5964 129.373 28.4358C129.373 29.3218 129.201 30.1145 128.856 30.8139C128.511 31.5134 128.012 32.1056 127.359 32.5906C126.706 33.0755 125.927 33.4439 125.023 33.6957C124.118 33.9475 123.106 34.0734 121.987 34.0734C120.98 34.0734 119.987 33.9429 119.007 33.6817C118.028 33.4113 117.137 33.0056 116.335 32.4647C115.543 31.9238 114.909 31.2336 114.433 30.3943C113.957 29.5549 113.719 28.5617 113.719 27.4145H117.93C117.93 28.0487 118.028 28.585 118.224 29.0233C118.42 29.4616 118.695 29.816 119.049 30.0865C119.413 30.357 119.842 30.5528 120.336 30.674C120.84 30.7953 121.39 30.8559 121.987 30.8559C122.715 30.8559 123.311 30.7533 123.778 30.5481C124.253 30.343 124.603 30.0585 124.827 29.6948C125.06 29.3311 125.177 28.9207 125.177 28.4637Z" fill="#44382D"/>
<path d="M140.929 30.1704V18.6573H144.957V33.7937H141.166L140.929 30.1704ZM141.376 27.0648L142.565 27.0368C142.565 28.0441 142.449 28.9813 142.216 29.8487C141.982 30.7067 141.633 31.4528 141.166 32.087C140.7 32.7118 140.112 33.2014 139.404 33.5558C138.695 33.9009 137.86 34.0734 136.9 34.0734C136.163 34.0734 135.482 33.9709 134.857 33.7657C134.242 33.5512 133.71 33.2201 133.262 32.7724C132.824 32.3155 132.479 31.7326 132.227 31.0238C131.985 30.3057 131.863 29.443 131.863 28.4358V18.6573H135.892V28.4637C135.892 28.9114 135.944 29.2891 136.046 29.5969C136.158 29.9046 136.312 30.1564 136.508 30.3523C136.704 30.5481 136.932 30.688 137.193 30.772C137.464 30.8559 137.762 30.8979 138.089 30.8979C138.919 30.8979 139.572 30.73 140.047 30.3943C140.532 30.0585 140.873 29.6015 141.068 29.0233C141.274 28.4358 141.376 27.7829 141.376 27.0648Z" fill="#44382D"/>
<path d="M148.035 12.3062H152.064V30.3243L151.658 33.7937H148.035V12.3062ZM161.647 26.0716V26.3654C161.647 27.4938 161.525 28.529 161.283 29.471C161.05 30.4129 160.686 31.229 160.192 31.9191C159.697 32.5999 159.082 33.1315 158.345 33.5139C157.618 33.8869 156.76 34.0734 155.771 34.0734C154.848 34.0734 154.046 33.8869 153.365 33.5139C152.693 33.1408 152.129 32.6139 151.672 31.9331C151.215 31.2523 150.847 30.4549 150.567 29.5409C150.287 28.627 150.077 27.6291 149.938 26.5472V25.9037C150.077 24.8219 150.287 23.824 150.567 22.91C150.847 21.996 151.215 21.1987 151.672 20.5178C152.129 19.837 152.693 19.3101 153.365 18.9371C154.036 18.564 154.829 18.3775 155.743 18.3775C156.741 18.3775 157.608 18.5687 158.345 18.951C159.091 19.3241 159.707 19.8557 160.192 20.5458C160.686 21.2266 161.05 22.038 161.283 22.98C161.525 23.9126 161.647 24.9431 161.647 26.0716ZM157.618 26.3654V26.0716C157.618 25.4561 157.571 24.8778 157.478 24.3369C157.394 23.7867 157.245 23.3064 157.03 22.896C156.816 22.4763 156.522 22.1453 156.149 21.9028C155.785 21.6603 155.314 21.5391 154.736 21.5391C154.186 21.5391 153.719 21.6323 153.337 21.8188C152.955 22.0054 152.638 22.2665 152.386 22.6022C152.143 22.938 151.961 23.339 151.84 23.8053C151.719 24.2623 151.644 24.7659 151.616 25.3162V27.1488C151.644 27.8855 151.766 28.5384 151.98 29.1073C152.204 29.6668 152.54 30.1098 152.987 30.4362C153.444 30.7533 154.036 30.9119 154.764 30.9119C155.333 30.9119 155.804 30.8 156.177 30.5761C156.55 30.3523 156.839 30.0352 157.044 29.6249C157.259 29.2145 157.408 28.7342 157.492 28.184C157.576 27.6244 157.618 27.0182 157.618 26.3654Z" fill="#44382D"/>
<path d="M173.104 30.1704V18.6573H177.133V33.7937H173.342L173.104 30.1704ZM173.551 27.0648L174.741 27.0368C174.741 28.0441 174.624 28.9813 174.391 29.8487C174.158 30.7067 173.808 31.4528 173.342 32.087C172.875 32.7118 172.288 33.2014 171.579 33.5558C170.87 33.9009 170.036 34.0734 169.075 34.0734C168.338 34.0734 167.657 33.9709 167.032 33.7657C166.417 33.5512 165.885 33.2201 165.438 32.7724C164.999 32.3155 164.654 31.7326 164.402 31.0238C164.16 30.3057 164.039 29.443 164.039 28.4358V18.6573H168.068V28.4637C168.068 28.9114 168.119 29.2891 168.222 29.5969C168.333 29.9046 168.487 30.1564 168.683 30.3523C168.879 30.5481 169.108 30.688 169.369 30.772C169.639 30.8559 169.938 30.8979 170.264 30.8979C171.094 30.8979 171.747 30.73 172.223 30.3943C172.707 30.0585 173.048 29.6015 173.244 29.0233C173.449 28.4358 173.551 27.7829 173.551 27.0648Z" fill="#44382D"/>
<path d="M184.239 21.9587V33.7937H180.21V18.6573H184.001L184.239 21.9587ZM188.8 18.5593L188.73 22.2945C188.534 22.2665 188.296 22.2432 188.016 22.2245C187.746 22.1966 187.499 22.1826 187.275 22.1826C186.706 22.1826 186.212 22.2572 185.792 22.4064C185.382 22.5463 185.037 22.7561 184.757 23.0359C184.486 23.3157 184.281 23.6561 184.141 24.0571C184.011 24.4582 183.936 24.9151 183.918 25.4281L183.106 25.1763C183.106 24.197 183.204 23.297 183.4 22.4763C183.596 21.6463 183.88 20.9235 184.253 20.308C184.636 19.6925 185.102 19.2168 185.652 18.8811C186.202 18.5454 186.832 18.3775 187.541 18.3775C187.765 18.3775 187.993 18.3961 188.226 18.4334C188.459 18.4614 188.651 18.5034 188.8 18.5593Z" fill="#44382D"/>
<path d="M190.702 12.3062H194.731V30.3243L194.326 33.7937H190.702V12.3062ZM204.314 26.0716V26.3654C204.314 27.4938 204.193 28.529 203.95 29.471C203.717 30.4129 203.353 31.229 202.859 31.9191C202.365 32.5999 201.749 33.1315 201.012 33.5139C200.285 33.8869 199.427 34.0734 198.438 34.0734C197.515 34.0734 196.713 33.8869 196.032 33.5139C195.361 33.1408 194.796 32.6139 194.34 31.9331C193.883 31.2523 193.514 30.4549 193.234 29.5409C192.955 28.627 192.745 27.6291 192.605 26.5472V25.9037C192.745 24.8219 192.955 23.824 193.234 22.91C193.514 21.996 193.883 21.1987 194.34 20.5178C194.796 19.837 195.361 19.3101 196.032 18.9371C196.704 18.564 197.496 18.3775 198.41 18.3775C199.408 18.3775 200.276 18.5687 201.012 18.951C201.758 19.3241 202.374 19.8557 202.859 20.5458C203.353 21.2266 203.717 22.038 203.95 22.98C204.193 23.9126 204.314 24.9431 204.314 26.0716ZM200.285 26.3654V26.0716C200.285 25.4561 200.238 24.8778 200.145 24.3369C200.061 23.7867 199.912 23.3064 199.697 22.896C199.483 22.4763 199.189 22.1453 198.816 21.9028C198.452 21.6603 197.981 21.5391 197.403 21.5391C196.853 21.5391 196.387 21.6323 196.004 21.8188C195.622 22.0054 195.305 22.2665 195.053 22.6022C194.81 22.938 194.629 23.339 194.507 23.8053C194.386 24.2623 194.312 24.7659 194.284 25.3162V27.1488C194.312 27.8855 194.433 28.5384 194.647 29.1073C194.871 29.6668 195.207 30.1098 195.655 30.4362C196.111 30.7533 196.704 30.9119 197.431 30.9119C198 30.9119 198.471 30.8 198.844 30.5761C199.217 30.3523 199.506 30.0352 199.711 29.6249C199.926 29.2145 200.075 28.7342 200.159 28.184C200.243 27.6244 200.285 27.0182 200.285 26.3654Z" fill="#44382D"/>
<path d="M215.002 29.6109C215.002 29.3218 214.918 29.0606 214.75 28.8275C214.582 28.5943 214.27 28.3798 213.813 28.184C213.365 27.9788 212.717 27.7923 211.868 27.6244C211.103 27.4565 210.39 27.2467 209.728 26.9949C209.075 26.7337 208.506 26.4213 208.021 26.0576C207.545 25.6939 207.172 25.2649 206.902 24.7706C206.631 24.267 206.496 23.6934 206.496 23.0499C206.496 22.4157 206.631 21.8188 206.902 21.2593C207.182 20.6997 207.578 20.2054 208.091 19.7764C208.613 19.3381 209.247 18.9977 209.993 18.7552C210.749 18.5034 211.598 18.3775 212.54 18.3775C213.855 18.3775 214.983 18.5873 215.925 19.007C216.876 19.4267 217.604 20.0049 218.107 20.7417C218.62 21.4691 218.877 22.2991 218.877 23.2318H214.848C214.848 22.8401 214.764 22.4903 214.596 22.1826C214.437 21.8655 214.186 21.6183 213.841 21.4411C213.505 21.2546 213.066 21.1614 212.526 21.1614C212.078 21.1614 211.691 21.2406 211.364 21.3992C211.038 21.5484 210.786 21.7536 210.609 22.0147C210.441 22.2665 210.357 22.5463 210.357 22.8541C210.357 23.0872 210.404 23.297 210.497 23.4836C210.6 23.6608 210.763 23.824 210.987 23.9732C211.211 24.1224 211.5 24.2623 211.854 24.3929C212.218 24.5141 212.665 24.626 213.197 24.7286C214.288 24.9524 215.263 25.2462 216.121 25.6099C216.979 25.9643 217.66 26.4493 218.163 27.0648C218.667 27.671 218.919 28.4684 218.919 29.457C218.919 30.1285 218.769 30.744 218.471 31.3036C218.173 31.8631 217.744 32.3528 217.184 32.7724C216.624 33.1828 215.953 33.5045 215.17 33.7377C214.395 33.9615 213.523 34.0734 212.554 34.0734C211.145 34.0734 209.952 33.8216 208.972 33.318C208.002 32.8144 207.266 32.1756 206.762 31.4015C206.268 30.6181 206.021 29.816 206.021 28.9953H209.84C209.858 29.5456 209.998 29.9886 210.259 30.3243C210.53 30.6601 210.87 30.9025 211.281 31.0518C211.7 31.201 212.153 31.2756 212.637 31.2756C213.16 31.2756 213.593 31.2056 213.938 31.0657C214.284 30.9165 214.545 30.7207 214.722 30.4782C214.908 30.2264 215.002 29.9373 215.002 29.6109Z" fill="#44382D"/>
</svg>
