<?xml version="1.0" encoding="UTF-8"?>
<svg xmlns="http://www.w3.org/2000/svg" width="445" height="41" viewBox="0 0 445 41" fill="none">
  <path fill-rule="evenodd" clip-rule="evenodd" d="M199.131 0.464844H231.189V8.38949H223.523V32.6788H237.845V23.3943H250.558V40.3972H199.719V32.7241H207.18V8.41083H199.113L199.131 0.464844Z" fill="#D8232A"></path>
  <path fill-rule="evenodd" clip-rule="evenodd" d="M279.404 0.486816H298.975L316.326 32.7008H324.192V40.4211H288.283V32.6548H295.745L293.329 27.2554H271.939L269.115 32.6367H277.59V40.465H252.371V32.6548H260.443L279.404 0.486816ZM276.583 15.6746H289.09L283.041 4.55292L276.583 15.6746Z" fill="#D8232A"></path>
  <path fill-rule="evenodd" clip-rule="evenodd" d="M326.01 0.508301H348.807L370.797 23.3944V8.31849H362.729V0.508301H385.929V8.41031H378.062V40.4206H362.528L342.149 18.3984V32.653H349.813V40.3973H326.615V32.653H333.879V8.31849H326.01V0.508301Z" fill="#D8232A"></path>
  <path fill-rule="evenodd" clip-rule="evenodd" d="M423.843 0.508301C435.185 0.508301 444.386 9.4236 444.386 20.4146C444.386 31.4115 434.796 40.4639 423.454 40.4639H388.353V32.6537H395.208V8.47627H387.74V0.508301H423.859H423.843ZM418.206 8.68125H411.752V32.4047H418.191L418.537 32.3957C424.998 32.3957 430.233 27.0751 430.233 20.5155C430.233 13.9553 424.666 8.68125 418.206 8.68125Z" fill="#D8232A"></path>
  <path fill-rule="evenodd" clip-rule="evenodd" d="M0.796875 0.481934L56.6774 0.507153V16.1262H43.7645V8.33868H37.1073V32.6312H44.9757V40.4414H12.9001V32.5633H20.1613V8.33868H13.7078V16.1042H0.796875V0.481934Z" fill="#D8232A"></path>
  <path fill-rule="evenodd" clip-rule="evenodd" d="M58.291 0.486816H89.1606V8.36555H82.7012V16.1052H98.2376V8.31899H91.9838V0.486816H121.841V8.31899H114.58V32.6536H122.648V40.4211H92.388V32.6367H98.2376V24.0745H82.9056V32.6536H89.3598V40.4211H58.8982V32.6367H66.1588V8.41146H58.291V0.486816Z" fill="#D8232A"></path>
  <path fill-rule="evenodd" clip-rule="evenodd" d="M124.471 0.504289L175.103 0.464844V16.5818H163.604V7.50358H149.28V16.3536H158.964V23.8495H149.482V33.6113H163.604V23.3943H175.306V40.4204H125.071V32.7001H133.342V8.31836H124.464L124.471 0.504289Z" fill="#D8232A"></path>
</svg>
